<svg xmlns="http://www.w3.org/2000/svg" width="113.386" height="27.619" viewBox="0 0 113.386 27.619"><defs fill="#fff"><clipPath id="a" fill="#fff"><path d="M0 0h113.386v27.619H0Z"/></clipPath></defs><g clip-path="url(#a)" fill="#fff"><path d="M96.77 14.139c4.204 1.233 9.866-1.268 10.685-5.98.16-1.691-.767-3.38-2.254-4.171-.35-.253-.979-.408-1.764-.5h-7.553a9 9 0 0 1 .043 10.02c1.098-2.842.705-6.243-1.2-8.638-.617-.81-1.62-1.17-2.738-1.32a9 9 0 0 0-1.278-.075l-3.529.01v9.618c1.25-1.242 2.237-2.974 2.522-4.797 1.186 5.18-2.005 6.394-2.462 10.722l.007-.013c-.129 1.273-.043 3.462-.067 4.768h10.865c-1.816-1.324-3.212-3.846-3.41-6.04l-.003-.03c.965 2.854 3.415 5.098 6.336 5.807 1.443.437 5.028.277 6.534.263V12.297a9 9 0 0 1-10.735 1.842m-84.801-4.75q.138-.646.479-1.108t.676-.485q.554-.034.917.606.364.641.48 1.564-1.756.024-2.552-.577m3.025-1.437a2.6 2.6 0 0 0-.716-.993 1.48 1.48 0 0 0-1.04-.364q-.807.035-1.454 1.022t-.773 2.269q1.258 1.107 3.556 1.085 0 .207-.024.53H9.186q-1.317 0-1.825-.41-.507-.409-.507-1.251-.001-.577.184-1.294l-.081-.057-.808.115q-.242.878-.242 1.489 0 2.587 3.048 2.586h6.315q.242-1.063.242-2.343 0-.532-.132-1.155a7 7 0 0 0-.387-1.23m3.278-3.931h-1.039v8.659h1.039Zm13.173 2.552.68.808.96-.797-.751-.888-.958.796-.681-.808-.96.797.763.888Zm4.11 1.293q-.623 0-1.455.335v1.015l.104.059q.624-.22 1.212-.22.636 0 1.207.282.572.284 1.703 1.068-.174.07-.797.335-.624.266-.819.33l-.658.207a4.5 4.5 0 0 1-.855.185q-.393.04-.877.04h-1.155q-.681.001-1.085-.277V8.432h-1.05v3.07h-7.713q-.739 0-1.189-.254V8.432H21.1v4.19q0 .762-.254 1.091-.254.33-.774.33-.566 0-1.016-.14l-.081.07.185 1.005q.416.195.866.195 2.1 0 2.101-2.748v-.23q.635.484 1.178.484h7.989l.427-.693q.716.694 1.397.694h1.12q.543 0 1.028-.07a6 6 0 0 0 1.032-.248q.55-.178.878-.306t1.045-.45q.715-.324 1.051-.462l.265-.958q-1.512-1.235-2.379-1.778-.865-.543-1.604-.543m8.624 1.974.104-.127q.796.97 1.258 1.847h-3.556q1.362-.75 2.194-1.72m1.882 2.84.485-1.097q-.567-1.316-1.663-2.678.75-1.27.751-3.614V4.02h-1.028v1.432q0 1.674-.427 2.655-1.027-1.12-2.748-2.54l-.739.658v.093q1.86 1.5 2.956 2.678l-.162.196q-1.155 1.363-2.932 2.344l-.023.127.392 1.016Zm2.852-8.659h-1.039v8.659h1.039Zm9.87 9.79V8.58h-1.027v4.584a5 5 0 0 1-1.432.208q-1.236 0-1.766-.543-.531-.543-.53-1.605-.001-.75.218-1.58l-.058-.059-.83.138q-.313.96-.313 1.79 0 1.409.773 2.216.774.809 2.264.808 1.305 0 2.701-.727m-2.124-5.876-.75-.9-.97.796.762.9Zm17.502 6.511.774.923.946-.796-.762-.924Zm-.761-.796-.958.797.762.923.958-.796Zm9.213-.97.623-1.131q-.092-1.71-.975-2.506-.885-.796-2.246-.796-.819-.001-1.743.185l3.532-3.533-.542-.866h-.104l-4.18 4.514.428.97a16 16 0 0 1 2.194-.173q1.176 0 1.835.45.658.45.82 1.708h-5.969q-.681 0-1.085-.277V8.43h-1.051v3.07H61.646V4.02h-1.04v8.659h13.809l.427-.693q.716.693 1.397.693h.219ZM13.401 4.88l-.716-.86-.925.76.727.86Zm-2.648 12.588h-.888l-2.334 2.783v-2.783h-.728v6.314h.728V20.66l2.375 3.122h.947L8.24 20.44Zm3.601 5.187q-.14.3-.508.499a1.6 1.6 0 0 1-.769.199q-.458 0-.713-.244t-.254-.673q0-1.008 1.636-1.008h.608Zm-.967-3.521q-.988 0-1.676.629l.22.369q.607-.44 1.266-.44 1.157.001 1.157 1.187v.06h-.688q-2.274 0-2.274 1.556 0 .639.409 1.023.408.384 1.097.384.907 0 1.516-.608l.1.488h.499v-2.753q0-.917-.42-1.406-.419-.49-1.206-.49m4.678 3.961-1.436-3.84h-.71l1.747 4.528h.169l-.18.439q-.368.928-.867.928-.26 0-.598-.18l-.22.359q.499.36.998.359.787 0 1.237-1.217l1.975-5.216h-.718Zm5.605-.439q-.14.3-.509.499a1.6 1.6 0 0 1-.769.199q-.458 0-.712-.244-.255-.244-.255-.673 0-1.008 1.636-1.008h.608Zm-.968-3.521q-.988 0-1.676.629l.22.369q.609-.44 1.267-.44 1.156.001 1.156 1.187v.06h-.687q-2.275 0-2.274 1.556 0 .639.409 1.023.407.384 1.096.384.907 0 1.516-.608l.1.488h.5v-2.753q0-.917-.42-1.406-.42-.49-1.206-.49m5.286.001q-.888 0-1.476.599h-.03l-.06-.48h-.56v4.529h.67V20.31q.189-.26.538-.43.35-.168.709-.168 1.236 0 1.236 1.416v2.653h.659v-2.703q0-1.945-1.686-1.945m7.281 1.477q-.48 0-.839-.06v-2.543q.339-.07.798-.07 1.456 0 1.456 1.326 0 1.347-1.416 1.347m-.04-3.262q-.648 0-1.536.12v6.314h.738v-2.634q.45.06.878.06.957 0 1.526-.457.629-.52.628-1.488 0-1.915-2.234-1.915m5.367 1.786q-.618 0-1.207.599h-.02l-.06-.48h-.568v4.529h.668V20.31q.438-.588 1.008-.588.387 0 .728.299l.548-.38q-.37-.508-1.097-.508m4.742 3.717a1.3 1.3 0 0 1-1.062.502q-.61 0-1.007-.448-.45-.509-.449-1.377 0-.827.404-1.34a1.29 1.29 0 0 1 1.062-.515q.618 0 1.017.48.44.518.44 1.375 0 .819-.405 1.322m-1.052-3.716q-.927 0-1.526.62-.658.677-.658 1.774 0 .937.528 1.596.63.779 1.656.778.887 0 1.496-.608.678-.689.678-1.766 0-.946-.509-1.606-.618-.788-1.665-.788m4.01-1.455q-.29.328-.29.918v.658h-.648v.539h.648v3.989h.659v-3.99h1.137v-.538h-1.137v-.628q0-.739.588-.74.32.001.648.17l.24-.368a1.8 1.8 0 0 0-1.028-.34q-.528 0-.817.33m3.012 3.531q.04-.689.404-1.117.364-.43.903-.43.568 0 .893.41.323.41.354 1.137Zm1.297-2.075q-.84 0-1.407.639-.627.708-.628 1.765 0 1.017.589 1.656.638.708 1.715.708.927 0 1.586-.52l-.23-.397q-.588.368-1.206.368-.739 0-1.202-.438-.464-.44-.504-1.167h3.232v-.22q0-.937-.41-1.576-.528-.818-1.535-.818m4.627 2.026q-.577-.17-.783-.346-.205-.174-.205-.493 0-.3.225-.474.224-.174.623-.174.59 0 1.087.26l.22-.37a2.33 2.33 0 0 0-1.376-.429q-.648 0-1.063.34a1.08 1.08 0 0 0-.414.867q0 .987 1.417 1.386.608.16.833.34t.224.498q0 .788-1.047.788-.668 0-1.247-.319a2 2 0 0 0-.12.2l-.099.17q.678.498 1.595.497.7 0 1.142-.363.445-.364.444-.953 0-.559-.318-.868-.32-.309-1.138-.558m4.04.001q-.578-.17-.783-.346-.204-.174-.204-.493 0-.3.224-.474.225-.174.623-.174.589 0 1.088.26l.22-.37a2.33 2.33 0 0 0-1.377-.429q-.65 0-1.062.34a1.07 1.07 0 0 0-.414.867q0 .987 1.416 1.386.609.16.832.34.226.18.225.498 0 .788-1.048.788-.667 0-1.246-.319a2 2 0 0 0-.12.2l-.099.17q.678.498 1.595.497.699 0 1.143-.363.444-.364.443-.953 0-.559-.319-.868-.318-.309-1.137-.558m3.102-3.81a.42.42 0 0 0-.309.13.4.4 0 0 0-.129.299q0 .189.123.314a.43.43 0 0 0 .315.125.434.434 0 0 0 .438-.44.4.4 0 0 0-.128-.299.43.43 0 0 0-.31-.13m-.339 6.434h.659v-4.528h-.659Zm5.202-.932a1.3 1.3 0 0 1-1.062.502q-.61 0-1.007-.448-.45-.509-.45-1.377 0-.827.404-1.34a1.29 1.29 0 0 1 1.063-.515q.617 0 1.017.48.44.518.439 1.375 0 .819-.404 1.322m-1.052-3.716q-.929 0-1.526.62-.66.677-.659 1.774 0 .937.529 1.596.628.779 1.656.778.888 0 1.496-.608.68-.689.679-1.766 0-.946-.51-1.606-.617-.788-1.665-.788m5.555.001q-.889 0-1.477.599h-.03l-.06-.48h-.559v4.529h.67V20.31a1.4 1.4 0 0 1 .538-.43q.35-.168.708-.168 1.236 0 1.236 1.416v2.653h.66v-2.703q0-1.945-1.687-1.945m5.855 3.522q-.14.3-.508.499a1.6 1.6 0 0 1-.768.199q-.46 0-.714-.244t-.254-.673q0-1.008 1.635-1.008h.609Zm-.967-3.521q-.989 0-1.676.629l.22.369q.608-.44 1.266-.44 1.157.001 1.157 1.187v.06h-.688q-2.274 0-2.274 1.556 0 .639.409 1.023.408.384 1.097.384.907 0 1.516-.608l.099.488h.5v-2.753q0-.917-.42-1.406-.418-.49-1.206-.49m3.161-1.425v6.074h.669v-6.433Z"/></g></svg>